REM DIRINDEX 1\6,1\2\7,1\2\8,1\2\9,1\3\10,1\3\11,1\4\12,1\4\13,1\4\14,1\5\15,1\5\16,1\5\17
REM DIRNAME folder01,folder02,folder03,folder04,folder05,folder06,folder07,folder08,folder09,folder10,folder11,folder12,folder13,folder14,folder15,folder16,folder17
TITLE ""
FILE "3Q_t_0174-0189.mp3" MP3
  TRACK 01 AUDIO
    TITLE "10:cjc041_1952"
    INDEX 01 00:00:00
  TRACK 02 AUDIO
    TITLE "0:"
    INDEX 01 00:01:15
  TRACK 03 AUDIO
    TITLE "11:cjc041_1953"
    INDEX 01 00:01:69
  TRACK 04 AUDIO
    TITLE "0:"
    INDEX 01 00:03:02
  TRACK 05 AUDIO
    TITLE "10:cjc041_1954"
    INDEX 01 00:03:53
  TRACK 06 AUDIO
    TITLE "0:"
    INDEX 01 00:04:62
  TRACK 07 AUDIO
    TITLE "11:cjc041_1955"
    INDEX 01 00:05:38
  TRACK 08 AUDIO
    TITLE "0:"
    INDEX 01 00:06:37
  TRACK 09 AUDIO
    TITLE "10:cjc041_1956"
    INDEX 01 00:07:19
  TRACK 10 AUDIO
    TITLE "0:"
    INDEX 01 00:08:40
  TRACK 11 AUDIO
    TITLE "11:cjc041_1957"
    INDEX 01 00:09:14
  TRACK 12 AUDIO
    TITLE "0:"
    INDEX 01 00:10:12
  TRACK 13 AUDIO
    TITLE "10:cjc041_1958"
    INDEX 01 00:10:66
  TRACK 14 AUDIO
    TITLE "0:"
    INDEX 01 00:12:03
  TRACK 15 AUDIO
    TITLE "11:cjc041_1959"
    INDEX 01 00:12:54
  TRACK 16 AUDIO
    TITLE "0:"
    INDEX 01 00:14:45
  TRACK 17 AUDIO
    TITLE "10:cjc041_1960"
    INDEX 01 00:15:27
  TRACK 18 AUDIO
    TITLE "0:"
    INDEX 01 00:16:34
  TRACK 19 AUDIO
    TITLE "11:cjc041_1961"
    INDEX 01 00:17:14
  TRACK 20 AUDIO
    TITLE "0:"
    INDEX 01 00:18:09
  TRACK 21 AUDIO
    TITLE "10:cjc041_1962"
    INDEX 01 00:18:66
  TRACK 22 AUDIO
    TITLE "0:"
    INDEX 01 00:20:08
  TRACK 23 AUDIO
    TITLE "11:cjc041_1963"
    INDEX 01 00:20:61
  TRACK 24 AUDIO
    TITLE "0:"
    INDEX 01 00:22:70
  TRACK 25 AUDIO
    TITLE "10:cjc041_1964"
    INDEX 01 00:23:46
  TRACK 26 AUDIO
    TITLE "0:"
    INDEX 01 00:24:61
  TRACK 27 AUDIO
    TITLE "11:cjc041_1965"
    INDEX 01 00:25:43
  TRACK 28 AUDIO
    TITLE "0:"
    INDEX 01 00:26:58
  TRACK 29 AUDIO
    TITLE "10:cjc041_1966"
    INDEX 01 00:27:34
  TRACK 30 AUDIO
    TITLE "0:"
    INDEX 01 00:28:57
  TRACK 31 AUDIO
    TITLE "11:cjc041_1967"
    INDEX 01 00:29:33
  TRACK 32 AUDIO
    TITLE "0:"
    INDEX 01 00:30:48
  TRACK 33 AUDIO
    TITLE "10:cjc041_1968"
    INDEX 01 00:31:29
  TRACK 34 AUDIO
    TITLE "0:"
    INDEX 01 00:32:56
  TRACK 35 AUDIO
    TITLE "11:cjc041_1969"
    INDEX 01 00:33:28
  TRACK 36 AUDIO
    TITLE "0:"
    INDEX 01 00:34:28
  TRACK 37 AUDIO
    TITLE "10:cjc041_1970"
    INDEX 01 00:35:00
  TRACK 38 AUDIO
    TITLE "0:"
    INDEX 01 00:36:15
  TRACK 39 AUDIO
    TITLE "11:cjc041_1971"
    INDEX 01 00:36:62
  TRACK 40 AUDIO
    TITLE "0:"
    INDEX 01 00:37:61
  TRACK 41 AUDIO
    TITLE "10:cjc041_1972"
    INDEX 01 00:38:35
  TRACK 42 AUDIO
    TITLE "0:"
    INDEX 01 00:39:60
  TRACK 43 AUDIO
    TITLE "11:cjc041_1973"
    INDEX 01 00:40:44
  TRACK 44 AUDIO
    TITLE "0:"
    INDEX 01 00:41:51
  TRACK 45 AUDIO
    TITLE "10:cjc041_1974"
    INDEX 01 00:42:27
  TRACK 46 AUDIO
    TITLE "0:"
    INDEX 01 00:43:35
  TRACK 47 AUDIO
    TITLE "11:cjc041_1975"
    INDEX 01 00:44:12
  TRACK 48 AUDIO
    TITLE "0:"
    INDEX 01 00:45:26
  TRACK 49 AUDIO
    TITLE "10:cjc041_1976"
    INDEX 01 00:46:07
  TRACK 50 AUDIO
    TITLE "0:"
    INDEX 01 00:47:28
  TRACK 51 AUDIO
    TITLE "11:cjc041_1977"
    INDEX 01 00:48:06
  TRACK 52 AUDIO
    TITLE "0:"
    INDEX 01 00:49:12
  TRACK 53 AUDIO
    TITLE "10:cjc041_1978"
    INDEX 01 00:49:69
  TRACK 54 AUDIO
    TITLE "0:"
    INDEX 01 00:51:07
  TRACK 55 AUDIO
    TITLE "11:cjc041_1979"
    INDEX 01 00:51:60
  TRACK 56 AUDIO
    TITLE "0:"
    INDEX 01 00:52:63
  TRACK 57 AUDIO
    TITLE "10:cjc041_1980"
    INDEX 01 00:53:39
  TRACK 58 AUDIO
    TITLE "0:"
    INDEX 01 00:54:54
  TRACK 59 AUDIO
    TITLE "11:cjc041_1981"
    INDEX 01 00:55:26
  TRACK 60 AUDIO
    TITLE "0:"
    INDEX 01 00:57:25
  TRACK 61 AUDIO
    TITLE "10:cjc041_1982"
    INDEX 01 00:58:05
  TRACK 62 AUDIO
    TITLE "0:"
    INDEX 01 00:59:26
  TRACK 63 AUDIO
    TITLE "11:cjc041_1983"
    INDEX 01 01:00:06
  TRACK 64 AUDIO
    TITLE "0:"
    INDEX 01 01:02:28
